<svg xmlns="http://www.w3.org/2000/svg" width="1800" height="1160" viewBox="0 0 1800 1160">
  <defs>
    <style>
      .title { font: 700 25px Georgia, serif; fill: #ffffff; }
      .section-title { font: 700 19px Georgia, serif; fill: #111111; }
      .text { font: 16px Georgia, serif; fill: #111111; }
      .small { font: 13px Georgia, serif; fill: #111111; }
      .tiny { font: 12px Georgia, serif; fill: #111111; }
      .math { font: italic 18px Georgia, serif; fill: #111111; }
      .label { font: 700 16px Georgia, serif; fill: #111111; }
      .blue { fill: #0a4fbf; }
      .orange { fill: #f28a13; }
      .green { fill: #18957f; }
      .purple { fill: #5d269f; }
      .navy { fill: #001a5a; }
      .muted { fill: #f8fafc; }
      .box { fill: #ffffff; stroke: #c7c7c7; stroke-width: 2; }
      .soft-blue { fill: #eef6ff; stroke: #5093ff; stroke-width: 2; }
      .soft-orange { fill: #fff5e8; stroke: #f2a23b; stroke-width: 2; }
      .soft-green { fill: #f1faec; stroke: #9fc988; stroke-width: 2; }
      .soft-purple { fill: #f4efff; stroke: #a88be6; stroke-width: 2; }
      .arrow { stroke: #111111; stroke-width: 2.5; fill: none; marker-end: url(#arrowhead); }
      .dashed { stroke-dasharray: 10 8; }
      .link-arrow { stroke: #0b2b75; stroke-width: 4; fill: none; marker-end: url(#blueArrow); }
      .thin { stroke-width: 1.5; }
      .gridline { stroke: #d9d9d9; stroke-width: 1.5; }
    </style>
    <marker id="arrowhead" markerWidth="10" markerHeight="10" refX="8" refY="3" orient="auto" markerUnits="strokeWidth">
      <path d="M0,0 L0,6 L9,3 z" fill="#111111"/>
    </marker>
    <marker id="blueArrow" markerWidth="11" markerHeight="11" refX="9" refY="3.5" orient="auto" markerUnits="strokeWidth">
      <path d="M0,0 L0,7 L10,3.5 z" fill="#0b2b75"/>
    </marker>
  </defs>

  <rect width="1800" height="1160" fill="#ffffff"/>

  <!-- Panel backgrounds -->
  <rect x="12" y="10" width="520" height="1140" rx="12" class="box"/>
  <rect x="548" y="10" width="760" height="1140" rx="12" class="box"/>
  <rect x="1324" y="10" width="464" height="1140" rx="12" class="box"/>

  <rect x="12" y="10" width="520" height="60" rx="12" class="navy"/>
  <rect x="548" y="10" width="760" height="60" rx="12" class="navy"/>
  <rect x="1324" y="10" width="464" height="60" rx="12" class="navy"/>
  <rect x="12" y="50" width="520" height="20" class="navy"/>
  <rect x="548" y="50" width="760" height="20" class="navy"/>
  <rect x="1324" y="50" width="464" height="20" class="navy"/>

  <text x="272" y="49" text-anchor="middle" class="title">SEQUENTIAL MEDIATION DAG</text>
  <text x="928" y="49" text-anchor="middle" class="title">SEQUENTIAL ZENTANGLER WORKFLOW</text>
  <text x="1556" y="49" text-anchor="middle" class="title">OUTPUT</text>

  <!-- Left panel DAG -->
  <rect x="34" y="522" width="128" height="90" rx="10" fill="#fff8e8" stroke="#f4a526" stroke-width="2"/>
  <text x="98" y="562" text-anchor="middle" class="label">Exposure</text>
  <text x="98" y="592" text-anchor="middle" class="math">(X)</text>

  <rect x="388" y="522" width="120" height="90" rx="10" fill="#f1faec" stroke="#9fc988" stroke-width="2"/>
  <text x="448" y="562" text-anchor="middle" class="label">Outcome</text>
  <text x="448" y="592" text-anchor="middle" class="math">(Y)</text>

  <rect x="190" y="130" width="230" height="128" rx="12" fill="#f7fbff" stroke="#3385ff" stroke-width="2"/>
  <text x="305" y="182" text-anchor="middle" class="label">Layer 1 mediators</text>
  <text x="305" y="213" text-anchor="middle" class="math">M<tspan baseline-shift="super" font-size="14">(1)</tspan></text>
  <circle cx="230" cy="170" r="5" class="blue"/>
  <circle cx="248" cy="151" r="5" class="blue"/>
  <circle cx="264" cy="181" r="5" class="blue"/>
  <circle cx="238" cy="197" r="5" class="blue"/>
  <rect x="318" y="150" width="56" height="56" class="blue" opacity="0.95"/>
  <line x1="337" y1="150" x2="337" y2="206" stroke="#001a5a" stroke-width="2"/>
  <line x1="355" y1="150" x2="355" y2="206" stroke="#001a5a" stroke-width="2"/>
  <line x1="318" y1="169" x2="374" y2="169" stroke="#001a5a" stroke-width="2"/>
  <line x1="318" y1="188" x2="374" y2="188" stroke="#001a5a" stroke-width="2"/>

  <rect x="190" y="345" width="230" height="128" rx="12" fill="#fff7ee" stroke="#f28a13" stroke-width="2"/>
  <text x="305" y="397" text-anchor="middle" class="label">Layer 2 mediators</text>
  <text x="305" y="428" text-anchor="middle" class="math">M<tspan baseline-shift="super" font-size="14">(2)</tspan></text>
  <path d="M230 373 q17 -18 35 0 q-17 18 -35 0" fill="none" stroke="#f28a13" stroke-width="5"/>
  <circle cx="248" cy="373" r="5" class="orange"/>
  <rect x="318" y="365" width="56" height="56" class="orange" opacity="0.95"/>
  <line x1="337" y1="365" x2="337" y2="421" stroke="#7a3c00" stroke-width="2"/>
  <line x1="355" y1="365" x2="355" y2="421" stroke="#7a3c00" stroke-width="2"/>
  <line x1="318" y1="384" x2="374" y2="384" stroke="#7a3c00" stroke-width="2"/>
  <line x1="318" y1="403" x2="374" y2="403" stroke="#7a3c00" stroke-width="2"/>

  <rect x="190" y="690" width="230" height="128" rx="12" fill="#f2fffb" stroke="#18957f" stroke-width="2"/>
  <text x="305" y="742" text-anchor="middle" class="label">Layer 3 mediators</text>
  <text x="305" y="773" text-anchor="middle" class="math">M<tspan baseline-shift="super" font-size="14">(3)</tspan></text>
  <path d="M236 716 l24 48 M260 716 l-24 48 M236 716 h24 M236 764 h24" stroke="#18957f" stroke-width="5" fill="none"/>
  <rect x="318" y="710" width="56" height="56" class="green" opacity="0.95"/>
  <line x1="337" y1="710" x2="337" y2="766" stroke="#075344" stroke-width="2"/>
  <line x1="355" y1="710" x2="355" y2="766" stroke="#075344" stroke-width="2"/>
  <line x1="318" y1="729" x2="374" y2="729" stroke="#075344" stroke-width="2"/>
  <line x1="318" y1="748" x2="374" y2="748" stroke="#075344" stroke-width="2"/>

  <text x="304" y="885" text-anchor="middle" class="section-title">...</text>

  <rect x="190" y="945" width="230" height="128" rx="12" fill="#f8f3ff" stroke="#875fde" stroke-width="2"/>
  <text x="305" y="997" text-anchor="middle" class="label">Layer k mediators</text>
  <text x="305" y="1028" text-anchor="middle" class="math">M<tspan baseline-shift="super" font-size="14">(k)</tspan></text>
  <rect x="318" y="965" width="56" height="56" class="purple" opacity="0.95"/>
  <line x1="337" y1="965" x2="337" y2="1021" stroke="#260d4f" stroke-width="2"/>
  <line x1="355" y1="965" x2="355" y2="1021" stroke="#260d4f" stroke-width="2"/>
  <line x1="318" y1="984" x2="374" y2="984" stroke="#260d4f" stroke-width="2"/>
  <line x1="318" y1="1003" x2="374" y2="1003" stroke="#260d4f" stroke-width="2"/>

  <path d="M162 555 C172 430 180 250 190 195" class="arrow"/>
  <path d="M420 195 C465 250 478 410 450 522" class="arrow"/>
  <path d="M162 555 C190 500 195 440 190 405" class="arrow"/>
  <path d="M420 405 C448 445 455 492 448 522" class="arrow"/>
  <path d="M162 555 C178 610 185 680 190 742" class="arrow"/>
  <path d="M420 742 C462 710 468 635 448 612" class="arrow"/>
  <path d="M162 555 C170 720 178 905 190 1000" class="arrow"/>
  <path d="M420 1000 C470 890 482 705 448 612" class="arrow"/>
  <path d="M420 258 C438 288 438 315 420 345" class="link-arrow"/>
  <path d="M420 473 C453 550 454 620 420 690" class="link-arrow"/>
  <path d="M420 818 C448 865 448 905 420 945" class="link-arrow"/>
  <path d="M162 566 L388 566" class="arrow dashed"/>

  <text x="254" y="318" text-anchor="middle" class="small">sequential links</text>
  <text x="254" y="339" text-anchor="middle" class="math">d<tspan baseline-shift="sub" font-size="13">12</tspan>, d<tspan baseline-shift="sub" font-size="13">23</tspan>, ...</text>

  <!-- Middle workflow -->
  <!-- Stage 1 -->
  <rect x="562" y="88" width="150" height="285" rx="10" class="soft-blue"/>
  <text x="637" y="128" text-anchor="middle" class="section-title">1) First-Layer</text>
  <text x="637" y="158" text-anchor="middle" class="section-title">Screen</text>
  <text x="637" y="193" text-anchor="middle" class="text">A-stage</text>
  <text x="637" y="224" text-anchor="middle" class="math">X -> M<tspan baseline-shift="super" font-size="13">(1)</tspan></text>
  <text x="637" y="258" text-anchor="middle" class="small">select top-k</text>
  <text x="637" y="280" text-anchor="middle" class="small">layer-1 mediators</text>
  <circle cx="637" cy="324" r="36" fill="none" stroke="#0a2a76" stroke-width="7"/>
  <line x1="662" y1="349" x2="694" y2="383" stroke="#0a2a76" stroke-width="9" stroke-linecap="round"/>

  <rect x="730" y="88" width="550" height="285" rx="12" class="box"/>
  <text x="1005" y="124" text-anchor="middle" class="section-title">Screen exposure-associated mediators in the first layer</text>
  <text x="835" y="176" text-anchor="middle" class="blue small">Layer 1</text>
  <text x="835" y="235" text-anchor="middle" class="orange small">Layer 2</text>
  <text x="835" y="294" text-anchor="middle" class="green small">Layer 3</text>
  <rect x="875" y="152" width="48" height="48" class="blue"/>
  <rect x="875" y="211" width="48" height="48" class="orange" opacity="0.45"/>
  <rect x="875" y="270" width="48" height="48" class="green" opacity="0.35"/>
  <line x1="945" y1="176" x2="1015" y2="176" class="arrow"/>
  <circle cx="1045" cy="176" r="22" class="blue"/>
  <text x="1128" y="179" class="text">rank by a-path evidence</text>
  <rect x="1148" y="224" width="95" height="100" rx="12" class="soft-purple"/>
  <text x="1196" y="257" text-anchor="middle" class="label">Output</text>
  <text x="1196" y="286" text-anchor="middle" class="small">selected</text>
  <text x="1196" y="308" text-anchor="middle" class="small">M<tspan baseline-shift="super" font-size="11">(1)</tspan></text>

  <!-- Divider + arrow -->
  <line x1="548" y1="405" x2="1308" y2="405" class="gridline"/>
  <path d="M928 377 L928 430" stroke="#0b2b75" stroke-width="12" marker-end="url(#blueArrow)"/>

  <!-- Stage 2 -->
  <rect x="562" y="430" width="150" height="260" rx="10" class="soft-orange"/>
  <text x="637" y="470" text-anchor="middle" class="section-title">2) Sequential</text>
  <text x="637" y="500" text-anchor="middle" class="section-title">Link Stage</text>
  <text x="637" y="535" text-anchor="middle" class="text">Adjacent layers</text>
  <text x="637" y="566" text-anchor="middle" class="math">M<tspan baseline-shift="super" font-size="13">(l)</tspan> -> M<tspan baseline-shift="super" font-size="13">(l+1)</tspan></text>
  <text x="637" y="604" text-anchor="middle" class="small">correlation screen</text>
  <text x="637" y="626" text-anchor="middle" class="small">estimate link coefficient</text>
  <text x="637" y="653" text-anchor="middle" class="math">d<tspan baseline-shift="sub" font-size="13">l,l+1</tspan></text>

  <rect x="730" y="430" width="550" height="260" rx="12" class="box"/>
  <text x="1005" y="466" text-anchor="middle" class="section-title">Build explicit sequential mediator paths</text>
  <rect x="785" y="515" width="48" height="48" class="blue"/>
  <circle cx="860" cy="539" r="18" class="blue"/>
  <path d="M884 539 L965 539" class="link-arrow"/>
  <rect x="990" y="515" width="48" height="48" class="orange"/>
  <circle cx="1065" cy="539" r="18" class="orange"/>
  <path d="M1089 539 L1170 539" class="link-arrow"/>
  <rect x="1195" y="515" width="48" height="48" class="green"/>
  <text x="1015" y="596" text-anchor="middle" class="text">retain links passing |cor| and q thresholds</text>
  <text x="1015" y="631" text-anchor="middle" class="text">path score includes a x d<tspan baseline-shift="sub" font-size="13">12</tspan> x ... x b</text>

  <!-- Divider + arrow -->
  <line x1="548" y1="720" x2="1308" y2="720" class="gridline"/>
  <path d="M928 692 L928 745" stroke="#0b2b75" stroke-width="12" marker-end="url(#blueArrow)"/>

  <!-- Stage 3 -->
  <rect x="562" y="745" width="150" height="205" rx="10" class="soft-green"/>
  <text x="637" y="785" text-anchor="middle" class="section-title">3) Terminal</text>
  <text x="637" y="815" text-anchor="middle" class="section-title">B-stage</text>
  <text x="637" y="850" text-anchor="middle" class="text">Outcome model</text>
  <text x="637" y="881" text-anchor="middle" class="math">X + M<tspan baseline-shift="super" font-size="13">(k)</tspan> -> Y</text>
  <text x="637" y="918" text-anchor="middle" class="small">early / intermediate / late</text>

  <rect x="730" y="745" width="550" height="205" rx="12" class="box"/>
  <rect x="785" y="775" width="435" height="48" rx="10" fill="#ffffff" stroke="#c7c7c7" stroke-width="1.8"/>
  <text x="1003" y="805" text-anchor="middle" class="text">Early Fusion: combine terminal mediators, jointly model</text>
  <rect x="785" y="840" width="435" height="48" rx="10" fill="#ffffff" stroke="#c7c7c7" stroke-width="1.8"/>
  <text x="1003" y="870" text-anchor="middle" class="text">Intermediate Fusion: cooperative integration</text>
  <rect x="785" y="905" width="435" height="48" rx="10" fill="#ffffff" stroke="#c7c7c7" stroke-width="1.8"/>
  <text x="1003" y="935" text-anchor="middle" class="text">Late Fusion: combine terminal view-specific evidence</text>

  <!-- Divider + arrow -->
  <line x1="548" y1="975" x2="1308" y2="975" class="gridline"/>
  <path d="M928 950 L928 1000" stroke="#0b2b75" stroke-width="12" marker-end="url(#blueArrow)"/>

  <!-- Stage 4 inference -->
  <rect x="562" y="1000" width="150" height="125" rx="10" class="soft-purple"/>
  <text x="637" y="1045" text-anchor="middle" class="section-title">4) Path</text>
  <text x="637" y="1075" text-anchor="middle" class="section-title">Inference</text>

  <rect x="730" y="1000" width="550" height="125" rx="12" class="box"/>
  <rect x="780" y="1017" width="450" height="32" rx="8" fill="#f4fbfb" stroke="#9ecacc"/>
  <text x="1005" y="1039" text-anchor="middle" class="small">Combine a-path, sequential d-links, and terminal b-path evidence</text>
  <rect x="780" y="1057" width="450" height="32" rx="8" fill="#f4fbfb" stroke="#9ecacc"/>
  <text x="1005" y="1079" text-anchor="middle" class="small">FDR correction (BH/BY) and q-value thresholding</text>
  <rect x="780" y="1097" width="450" height="32" rx="8" fill="#f4fbfb" stroke="#9ecacc"/>
  <text x="1005" y="1119" text-anchor="middle" class="small">Rank significant sequential mediator paths</text>

  <!-- Right panel output -->
  <rect x="1342" y="96" width="428" height="70" rx="12" class="soft-purple"/>
  <text x="1556" y="139" text-anchor="middle" class="section-title" fill="#001a5a">Ranked Sequential Mediator Paths</text>

  <rect x="1360" y="190" width="392" height="470" rx="10" fill="#ffffff" stroke="#c7c7c7" stroke-width="2"/>
  <line x1="1360" y1="250" x2="1752" y2="250" class="gridline"/>
  <line x1="1434" y1="190" x2="1434" y2="660" class="gridline"/>
  <line x1="1642" y1="190" x2="1642" y2="660" class="gridline"/>
  <text x="1397" y="229" text-anchor="middle" class="label">Rank</text>
  <text x="1538" y="229" text-anchor="middle" class="label">Sequential Path</text>
  <text x="1697" y="229" text-anchor="middle" class="label">Evidence</text>

  <text x="1397" y="305" text-anchor="middle" class="label">1</text>
  <rect x="1465" y="278" width="34" height="34" class="blue"/>
  <text x="1515" y="302" class="math">M<tspan baseline-shift="sub" font-size="12">34</tspan></text>
  <text x="1567" y="302" class="text">-></text>
  <rect x="1602" y="278" width="34" height="34" class="orange"/>
  <text x="1697" y="291" text-anchor="middle" class="tiny">score</text>
  <text x="1697" y="311" text-anchor="middle" class="tiny">q-value</text>
  <line x1="1360" y1="340" x2="1752" y2="340" class="gridline"/>

  <text x="1397" y="395" text-anchor="middle" class="label">2</text>
  <rect x="1450" y="368" width="30" height="30" class="blue"/>
  <text x="1489" y="391" class="text">-></text>
  <rect x="1520" y="368" width="30" height="30" class="orange"/>
  <text x="1559" y="391" class="text">-></text>
  <rect x="1590" y="368" width="30" height="30" class="green"/>
  <text x="1697" y="381" text-anchor="middle" class="tiny">a,d,b</text>
  <text x="1697" y="401" text-anchor="middle" class="tiny">evidence</text>
  <line x1="1360" y1="430" x2="1752" y2="430" class="gridline"/>

  <text x="1397" y="485" text-anchor="middle" class="label">3</text>
  <rect x="1465" y="458" width="34" height="34" class="green"/>
  <text x="1515" y="482" class="math">M<tspan baseline-shift="sub" font-size="12">22</tspan></text>
  <text x="1567" y="482" class="text">-></text>
  <rect x="1602" y="458" width="34" height="34" class="purple"/>
  <text x="1697" y="471" text-anchor="middle" class="tiny">q &lt;=</text>
  <text x="1697" y="491" text-anchor="middle" class="tiny">threshold</text>
  <line x1="1360" y1="520" x2="1752" y2="520" class="gridline"/>

  <text x="1397" y="570" text-anchor="middle" class="section-title">...</text>
  <text x="1538" y="570" text-anchor="middle" class="section-title">...</text>
  <text x="1697" y="570" text-anchor="middle" class="section-title">...</text>
  <line x1="1360" y1="600" x2="1752" y2="600" class="gridline"/>

  <text x="1397" y="635" text-anchor="middle" class="label">K</text>
  <rect x="1450" y="615" width="28" height="28" class="blue"/>
  <text x="1488" y="637" class="text">-></text>
  <rect x="1518" y="615" width="28" height="28" class="orange"/>
  <text x="1556" y="637" class="text">-></text>
  <rect x="1586" y="615" width="28" height="28" class="purple"/>
  <text x="1697" y="635" text-anchor="middle" class="tiny">ranked</text>

  <line x1="1345" y1="710" x2="1770" y2="710" stroke="#9b9b9b" stroke-dasharray="3 6" stroke-width="2"/>

  <rect x="1342" y="750" width="428" height="360" rx="12" class="soft-purple"/>
  <text x="1556" y="790" text-anchor="middle" class="section-title" fill="#001a5a">Supported Outcomes</text>
  <rect x="1365" y="822" width="120" height="250" rx="10" fill="#ffffff" stroke="#b49be9" stroke-width="2"/>
  <rect x="1500" y="822" width="120" height="250" rx="10" fill="#ffffff" stroke="#b49be9" stroke-width="2"/>
  <rect x="1635" y="822" width="120" height="250" rx="10" fill="#ffffff" stroke="#b49be9" stroke-width="2"/>
  <text x="1425" y="860" text-anchor="middle" class="label">Continuous</text>
  <text x="1425" y="886" text-anchor="middle" class="small">(Regression)</text>
  <text x="1560" y="860" text-anchor="middle" class="label">Binary</text>
  <text x="1560" y="886" text-anchor="middle" class="small">(Logistic)</text>
  <text x="1695" y="860" text-anchor="middle" class="label">Survival</text>
  <text x="1695" y="886" text-anchor="middle" class="small">(Time-to-Event)</text>

  <!-- outcome mini icons -->
  <line x1="1390" y1="1030" x2="1460" y2="1030" stroke="#111" stroke-width="3" marker-end="url(#arrowhead)"/>
  <line x1="1390" y1="1030" x2="1390" y2="930" stroke="#111" stroke-width="3" marker-end="url(#arrowhead)"/>
  <circle cx="1405" cy="1010" r="4" fill="#111"/>
  <circle cx="1420" cy="990" r="4" fill="#111"/>
  <circle cx="1433" cy="970" r="4" fill="#111"/>
  <circle cx="1448" cy="950" r="4" fill="#111"/>
  <line x1="1400" y1="1015" x2="1455" y2="945" stroke="#0a66cc" stroke-width="4"/>

  <line x1="1522" y1="1030" x2="1595" y2="1030" stroke="#111" stroke-width="3"/>
  <line x1="1522" y1="1030" x2="1522" y2="930" stroke="#111" stroke-width="3"/>
  <path d="M1525 1025 C1540 1020 1545 980 1554 964 C1566 940 1580 934 1594 932" fill="none" stroke="#111" stroke-width="4"/>
  <line x1="1524" y1="975" x2="1595" y2="975" stroke="#111" stroke-width="2" stroke-dasharray="8 6"/>

  <line x1="1658" y1="1030" x2="1730" y2="1030" stroke="#111" stroke-width="3" marker-end="url(#arrowhead)"/>
  <line x1="1658" y1="1030" x2="1658" y2="930" stroke="#111" stroke-width="3" marker-end="url(#arrowhead)"/>
  <path d="M1665 945 L1680 945 L1680 970 L1697 970 L1697 990 L1714 990 L1714 1015 L1730 1015" fill="none" stroke="#5d269f" stroke-width="4"/>
</svg>
